<?xml version="1.0" encoding="utf-8"?>
<!-- Generator: Adobe Illustrator 28.1.0, SVG Export Plug-In . SVG Version: 6.00 Build 0)  -->
<svg version="1.1" id="Layer_1" xmlns="http://www.w3.org/2000/svg" xmlns:xlink="http://www.w3.org/1999/xlink" x="0px" y="0px"
	 viewBox="0 0 316.7 56" style="enable-background:new 0 0 316.7 56;" xml:space="preserve">
<style type="text/css">
	.st0{fill:url(#SVGID_1_);}
</style>
<linearGradient id="SVGID_1_" gradientUnits="userSpaceOnUse" x1="6.0905" y1="27.2434" x2="309.4176" y2="27.2434">
	<stop  offset="0" style="stop-color:#5865F2"/>
	<stop  offset="1" style="stop-color:#E0234E"/>
</linearGradient>
<path class="st0" d="M36,44.7h-8.4L14.1,20.4v24.3h-8V9.8h10.8l11.1,20v-20h8V44.7z M49.1,44.7V9.8h23.6v6.7H57.8v6.1h13.7v6.7H57.8
	V38h14.9v6.7H49.1z M95.4,45.3c-2.7,0-5-0.3-7-0.8s-3.9-1.2-5.6-1.9v-8.3h0.8c1.8,1.5,3.7,2.6,5.8,3.4s4.2,1.2,6.1,1.2
	c0.5,0,1.2-0.1,2-0.2c0.8-0.1,1.5-0.3,2-0.5c0.6-0.3,1.1-0.6,1.5-1.1s0.6-1.1,0.6-1.9c0-0.9-0.3-1.6-1-2.1s-1.5-0.9-2.5-1.2
	c-1.2-0.3-2.5-0.6-3.8-0.9s-2.6-0.6-3.8-1c-2.7-1-4.6-2.2-5.8-3.8s-1.8-3.6-1.8-6c0-3.3,1.4-5.9,4.1-7.9s6.2-3,10.4-3
	c2.1,0,4.1,0.2,6.2,0.6s3.9,1,5.5,1.7v8h-0.8c-1.3-1.1-2.9-2-4.7-2.8s-3.8-1.1-5.8-1.1c-0.8,0-1.5,0.1-2.1,0.2s-1.2,0.3-1.9,0.6
	c-0.5,0.2-1,0.6-1.4,1.1s-0.6,1-0.6,1.7c0,0.9,0.3,1.6,0.9,2.1s1.9,1,3.7,1.4c1.2,0.3,2.3,0.5,3.4,0.8s2.2,0.6,3.5,1
	c2.4,0.9,4.2,2.1,5.4,3.5c1.2,1.5,1.8,3.4,1.8,5.8c0,3.5-1.4,6.3-4.1,8.4S100,45.3,95.4,45.3z M127.7,44.7V16.5h-10.3V9.8h29.4v6.7
	h-10.3v28.2H127.7z M171.4,45.4c-5.2,0-9.4-1.6-12.5-4.7s-4.6-7.6-4.6-13.3c0-5.5,1.5-9.9,4.6-13.2s7.2-4.9,12.5-4.9
	c1.4,0,2.6,0.1,3.8,0.2s2.2,0.4,3.2,0.7c0.8,0.2,1.7,0.6,2.6,1s1.7,0.8,2.3,1.1v8.3h-0.9c-0.4-0.4-1-0.8-1.6-1.3s-1.4-1-2.2-1.5
	s-1.7-0.9-2.7-1.3s-2-0.5-3.1-0.5c-1.3,0-2.4,0.2-3.5,0.6s-2.1,1.1-3,2.1c-0.9,0.9-1.6,2.1-2.1,3.6s-0.8,3.3-0.8,5.4
	c0,2.2,0.3,4,0.9,5.5s1.3,2.7,2.3,3.6c0.9,0.9,1.9,1.5,3,1.9s2.2,0.6,3.3,0.6c1.2,0,2.3-0.2,3.3-0.6s1.9-0.8,2.6-1.3
	c0.8-0.5,1.5-1,2.1-1.5s1.1-0.9,1.5-1.3h0.8v8.2c-0.6,0.3-1.4,0.6-2.2,1s-1.7,0.7-2.6,1c-1.1,0.3-2.1,0.6-3.1,0.8
	S173.1,45.4,171.4,45.4z M226.2,27.3c0,5.6-1.5,10.1-4.5,13.3s-7.1,4.9-12.4,4.9c-5.3,0-9.4-1.6-12.4-4.9s-4.5-7.7-4.5-13.3
	c0-5.6,1.5-10,4.5-13.3s7.1-4.9,12.4-4.9c5.2,0,9.4,1.6,12.4,4.9S226.2,21.6,226.2,27.3z M217.2,27.2c0-2.1-0.2-3.8-0.6-5.3
	s-1-2.7-1.7-3.6c-0.8-1-1.6-1.6-2.5-2.1s-1.9-0.6-2.9-0.6c-1.1,0-2.1,0.2-2.9,0.6s-1.7,1.1-2.5,2.1c-0.7,0.9-1.3,2.1-1.7,3.6
	s-0.7,3.3-0.7,5.4c0,2.1,0.2,3.9,0.6,5.3s1,2.6,1.7,3.6c0.8,1,1.6,1.7,2.6,2.1s1.9,0.6,3,0.6c1,0,2-0.2,3-0.7s1.8-1.1,2.5-2.1
	c0.8-1,1.3-2.2,1.7-3.6S217.2,29.4,217.2,27.2z M269.7,44.7H259l-9.7-12.8h-3.1v12.8h-8.7V9.8h14c1.9,0,3.6,0.1,5.1,0.4
	s2.8,0.7,4,1.5c1.2,0.8,2.2,1.8,3,3s1.1,2.8,1.1,4.7c0,2.7-0.6,4.8-1.8,6.5s-2.8,3-4.8,4L269.7,44.7z M255.6,20.5
	c0-0.9-0.2-1.6-0.5-2.3s-0.9-1.1-1.7-1.5c-0.5-0.2-1.2-0.4-1.8-0.4s-1.5-0.1-2.5-0.1h-2.9v9.4h2.5c1.2,0,2.3-0.1,3.1-0.2
	s1.6-0.5,2.2-0.9c0.6-0.4,1-1,1.3-1.6S255.6,21.5,255.6,20.5z M309.4,27.3c0,3.2-0.7,6.2-2.1,8.7s-3.2,4.5-5.4,5.9
	c-1.8,1.2-3.8,1.9-5.9,2.3s-4.4,0.5-6.8,0.5h-10.9V9.8h10.8c2.5,0,4.8,0.2,6.9,0.5s4.1,1.1,6,2.3c2.3,1.5,4.1,3.4,5.4,5.9
	S309.4,23.9,309.4,27.3z M300.4,27.2c0-2.3-0.4-4.3-1.2-5.9s-2-2.9-3.6-3.8c-1.2-0.7-2.4-1-3.7-1.1s-2.9-0.1-4.7-0.1H287v21.8h0.2
	c2,0,3.6,0,5-0.1s2.6-0.5,3.9-1.3c1.4-0.9,2.5-2.2,3.3-3.8S300.4,29.5,300.4,27.2z"/>
</svg>
